<svg xmlns="http://www.w3.org/2000/svg" width="376.219" height="235.969" viewBox="0 0 376.219 235.969">
  <metadata><?xpacket begin="﻿" id="W5M0MpCehiHzreSzNTczkc9d"?>
<x:xmpmeta xmlns:x="adobe:ns:meta/" x:xmptk="Adobe XMP Core 5.6-c138 79.159824, 2016/09/14-01:09:01        ">
   <rdf:RDF xmlns:rdf="http://www.w3.org/1999/02/22-rdf-syntax-ns#">
      <rdf:Description rdf:about=""/>
   </rdf:RDF>
</x:xmpmeta>
                                                                                                    
                                                                                                    
                                                                                                    
                                                                                                    
                                                                                                    
                                                                                                    
                                                                                                    
                                                                                                    
                                                                                                    
                                                                                                    
                                                                                                    
                                                                                                    
                                                                                                    
                                                                                                    
                                                                                                    
                                                                                                    
                                                                                                    
                                                                                                    
                                                                                                    
                                                                                                    
                           
<?xpacket end="w"?></metadata>
<defs>
    <style>
      .cls-1 {
        fill: #fff;
        fill-rule: evenodd;
      }
    </style>
  </defs>
  <path id="FB" class="cls-1" d="M105.878,828.843h47.854V731.156H256.37V690.233H153.732V633.468H274.851V592.875H105.878V828.843Zm187.773,0H401.9c25.082,0,45.874-6.93,59.4-18.811,13.861-11.881,20.791-27.062,20.791-49.174,0-29.042-17.821-50.824-43.893-58.414v-0.99c22.112-7.591,36.963-23.1,36.963-47.194,0-18.481-5.941-32.673-18.811-44.223-12.211-10.891-31.683-17.162-57.095-17.162H293.651V828.843Zm47.854-105.608H395.3c21.781,0,38.283,11.551,38.283,33.993,0,19.141-13.861,32.012-36.963,32.012H341.505v-66Zm0-35.312V631.818h52.8c21.121,0,33.992,10.231,33.992,27.722,0,18.482-14.191,28.383-34.982,28.383H341.505Z" transform="translate(-105.875 -592.875)"/>
</svg>
