<svg xmlns="http://www.w3.org/2000/svg" width="285.125" height="245.531" viewBox="0 0 285.125 245.531">
  <metadata><?xpacket begin="﻿" id="W5M0MpCehiHzreSzNTczkc9d"?>
<x:xmpmeta xmlns:x="adobe:ns:meta/" x:xmptk="Adobe XMP Core 5.6-c138 79.159824, 2016/09/14-01:09:01        ">
   <rdf:RDF xmlns:rdf="http://www.w3.org/1999/02/22-rdf-syntax-ns#">
      <rdf:Description rdf:about=""/>
   </rdf:RDF>
</x:xmpmeta>
                                                                                                    
                                                                                                    
                                                                                                    
                                                                                                    
                                                                                                    
                                                                                                    
                                                                                                    
                                                                                                    
                                                                                                    
                                                                                                    
                                                                                                    
                                                                                                    
                                                                                                    
                                                                                                    
                                                                                                    
                                                                                                    
                                                                                                    
                                                                                                    
                                                                                                    
                                                                                                    
                           
<?xpacket end="w"?></metadata>
<defs>
    <style>
      .cls-1 {
        fill: #fff;
        fill-rule: evenodd;
      }
    </style>
  </defs>
  <path id="IG" class="cls-1" d="M596.208,828.843h47.854V592.875H596.208V828.843Zm249.161,0h35.973V703.434H782.005V740.4h56.764v1.32c0,26.072-24.092,53.464-60.725,53.464-40.593,0-66-35.313-66-83.5,0-46.863,22.112-83.826,66.665-83.826,30.363,0,47.854,16.5,53.134,39.273H878.7c-7.591-46.2-41.583-78.876-100.988-78.876-31.682,0-56.764,9.571-75.906,27.062-24.751,22.772-38.613,57.094-38.613,96.367,0,35.643,11.221,66.005,30.693,87.787,19.471,21.452,47.193,34.323,82.836,34.323,28.052,0,50.164-9.571,66.335-36.633h0.66Z" transform="translate(-596.219 -588.25)"/>
</svg>
