<svg xmlns="http://www.w3.org/2000/svg" width="405.03" height="239.876" viewBox="0 0 415.16 245.875">
  <metadata><?xpacket begin="﻿" id="W5M0MpCehiHzreSzNTczkc9d"?>
<x:xmpmeta xmlns:x="adobe:ns:meta/" x:xmptk="Adobe XMP Core 5.6-c138 79.159824, 2016/09/14-01:09:01        ">
   <rdf:RDF xmlns:rdf="http://www.w3.org/1999/02/22-rdf-syntax-ns#">
      <rdf:Description rdf:about=""/>
   </rdf:RDF>
</x:xmpmeta>
                                                                                                    
                                                                                                    
                                                                                                    
                                                                                                    
                                                                                                    
                                                                                                    
                                                                                                    
                                                                                                    
                                                                                                    
                                                                                                    
                                                                                                    
                                                                                                    
                                                                                                    
                                                                                                    
                                                                                                    
                                                                                                    
                                                                                                    
                                                                                                    
                                                                                                    
                                                                                                    
                           
<?xpacket end="w"?></metadata>
<defs>
    <style>
      .cls-1 {
        fill: #fff;
        fill-rule: evenodd;
      }
    </style>
  </defs>
  <path id="SC" class="cls-1" d="M1634.3,834.124c53.13,0,91.74-26.732,91.74-74.586,0-50.824-39.6-62.375-88.11-72.935-34.99-7.591-51.49-13.2-51.49-32.343,0-16.831,16.83-27.722,42.57-27.722,24.43,0,42.91,11.881,45.55,35.643h45.87c-3.63-47.524-37.95-73.6-91.09-73.6-52.47,0-90.42,24.092-90.42,70.625,0,49.174,38.61,60.395,80.85,69.966,35.98,8.25,58.42,12.871,58.42,35.972,0,21.782-21.45,30.363-45.88,30.363-33.66,0-49.83-11.221-53.13-39.6h-46.86C1533.97,805.742,1570.27,834.124,1634.3,834.124Zm215.49-.33c32.67,0,55.44-9.9,71.62-25.082a83.565,83.565,0,0,0,26.07-55.774h-46.87c-2.97,24.751-22.77,41.583-50.82,41.583-39.6,0-64.68-34.653-64.68-82.837,0-46.863,20.79-83.166,64.35-83.166,27.72,0,45.54,15.511,49.83,39.273h47.53c-4.95-44.883-39.27-79.536-97.36-79.536-69.63,0-113.2,53.464-113.2,123.429C1736.26,782.64,1783.46,833.794,1849.79,833.794Z" transform="translate(-1532.31 -588.25)"/>
</svg>
